<svg height="64.325" viewBox="0 0 58.006 64.325" width="58.006" xmlns="http://www.w3.org/2000/svg" xmlns:xlink="http://www.w3.org/1999/xlink"><linearGradient id="a" gradientUnits="objectBoundingBox" x1=".887" x2=".115" y1=".849" y2=".153"><stop offset="0" stop-color="#278dff"/><stop offset="1" stop-color="#93c6ff"/></linearGradient><path d="m54.9 13.6-21.6-12.5a8.59 8.59 0 0 0 -8.5 0l-21.6 12.5a6.5 6.5 0 0 0 -3.2 5.6v26a6.384 6.384 0 0 0 3.2 5.6l21.6 12.4a8.009 8.009 0 0 0 4.2 1.1 8.769 8.769 0 0 0 4.2-1.1l21.6-12.4a6.5 6.5 0 0 0 3.2-5.6v-26a6.1 6.1 0 0 0 -3.1-5.6zm-51.9 5.6v-.3l10.8 6.2v12.4l-10.8-6.1zm13.8 7.7 10.8 6.2v12.4l-10.8-6.2zm12.3 3.6-10.8-6.2 10.8-6.2 10.8 6.2zm1.5 2.6 10.8-6.2v12.4l-10.8 6.2zm13.7-8 10.8-6.2v12.5l-10.8 6.2zm9.3-8.8-10.8 6.2-10.8-6.2 10.8-6.2 10.5 6.1c.1 0 .2.1.3.1zm-27.3-12.6a5.95 5.95 0 0 1 5.6 0l8 4.6-10.8 6.2-10.8-6.1zm-11 6.4 10.8 6.2-10.8 6.2-10.8-6.2.2-.2zm-12.3 35.2v-10.5l10.8 6.2v12.4l-9-5.2a3.223 3.223 0 0 1 -1.8-2.9zm13.8 9.9v-12.4l10.8 6.2v12.2a4.328 4.328 0 0 1 -1.2-.5zm15 5.5a6.117 6.117 0 0 1 -1.2.5v-12.2l10.8-6.2v12.4zm21.6-12.4-9 5.2v-12.4l10.8-6.2v10.4a3.978 3.978 0 0 1 -1.8 3z" fill="url(#a)" transform="translate(0 .025)"/></svg>